# Blender v2.76 (sub 0) OBJ File: 'display.blend'
# www.blender.org
v -30.000000 1.500000 0.500000
v -30.000000 6.500000 0.500000
v -30.000000 1.500000 -0.500000
v -30.000000 6.500000 -0.500000
v 30.000000 1.500000 0.500000
v 30.000000 6.500000 0.500000
v 30.000000 1.500000 -0.500000
v 30.000000 6.500000 -0.500000
vt 0.000000 0.000000
vt 0.685547 0.000000
vt 0.685547 1.000000
vt 0.000000 1.000000
vn -1.000000 0.000000 0.000000
vn 0.000000 0.000000 -1.000000
vn 1.000000 0.000000 0.000000
vn 0.000000 0.000000 1.000000
vn 0.000000 -1.000000 0.000000
vn 0.000000 1.000000 0.000000
s off
f 4/1/1 3/2/1 1/3/1
f 8/1/2 7/2/2 3/3/2
f 6/1/3 5/2/3 7/3/3
f 2/2/4 1/3/4 5/4/4
f 3/3/5 7/4/5 5/1/5
f 8/2/6 4/3/6 2/4/6
f 2/4/1 4/1/1 1/3/1
f 4/4/2 8/1/2 3/3/2
f 8/4/3 6/1/3 7/3/3
f 6/1/4 2/2/4 5/4/4
f 1/2/5 3/3/5 5/1/5
f 6/1/6 8/2/6 2/4/6
